<svg xmlns="http://www.w3.org/2000/svg" width="240" viewBox="0 0 240 81" fill="currentColor"><path d="M61.12 28.687l1.97-3.578 5.584 3.382-1.969 3.577c-.346.628.172 1.391.85 1.254l3.773-.764 1.221 6.642-3.773.763c-6.103 1.235-10.763-5.629-7.656-11.276zM57.919 51.53l-2.149 3.578-6.092-3.382 2.149-3.578c.377-.628-.187-1.391-.928-1.254l-4.116.763-1.332-6.641 4.116-.763c6.659-1.235 11.741 5.629 8.352 11.276z"></path><path d="M57.918 28.687l-2.148-3.578-6.092 3.382 2.149 3.577c.377.628-.187 1.391-.928 1.254l-4.116-.764-1.331 6.642 4.116.763c6.659 1.235 11.743-5.629 8.352-11.276h-.001zm3.203 22.843l1.968 3.578 5.585-3.382-1.969-3.578c-.345-.628.172-1.391.851-1.254l3.773.763 1.221-6.641-3.773-.763c-6.104-1.235-10.763 5.629-7.656 11.276h.001z"></path><path d="M181.251 48.191v-6.864c0-.951.226-1.805.678-2.56.469-.77 1.133-1.374 1.992-1.813s1.882-.657 3.069-.657c.554-.005 1.106.063 1.64.203.5.121.953.295 1.359.521.421.212.781.468 1.078.77h.047a4.58 4.58 0 0 1 1.077-.77 5.76 5.76 0 0 1 1.383-.521 6.49 6.49 0 0 1 1.663-.203c1.187 0 2.21.218 3.069.657s1.522 1.042 1.991 1.813c.469.755.703 1.608.703 2.56v6.864h-3.655V41.44c0-.377-.101-.717-.304-1.019-.186-.316-.452-.581-.773-.77a2.15 2.15 0 0 0-1.125-.295c-.422 0-.804.098-1.148.295a2.18 2.18 0 0 0-.773.77 1.89 1.89 0 0 0-.281 1.019v6.751h-3.631V41.44c0-.377-.102-.717-.305-1.019a2.12 2.12 0 0 0-.797-.77c-.338-.199-.728-.301-1.125-.295a2.27 2.27 0 0 0-1.147.295 2.18 2.18 0 0 0-.773.77 1.9 1.9 0 0 0-.282 1.019v6.751h-3.63zm-7.943.272c-1.233 0-2.304-.226-3.209-.68-.89-.468-1.578-1.095-2.062-1.88-.484-.8-.726-1.685-.726-2.651v-6.684h3.631v6.593c0 .408.101.786.304 1.133.203.332.477.604.82.816.359.196.766.295 1.219.295a2.32 2.32 0 0 0 1.171-.295c.359-.212.641-.484.844-.816.203-.347.305-.725.305-1.133v-6.593h3.63v6.684c0 .967-.234 1.851-.703 2.651-.468.785-1.147 1.413-2.037 1.88-.875.453-1.938.68-3.187.68zm-17.694-.272v-2.786h5.787a.96.96 0 0 0 .422-.091c.124-.075.226-.174.304-.294s.117-.256.117-.397-.041-.277-.117-.396-.179-.211-.304-.272a.8.8 0 0 0-.422-.113h-2.109c-.781 0-1.492-.121-2.132-.363a3.36 3.36 0 0 1-1.499-1.178c-.36-.544-.539-1.246-.539-2.107a3.44 3.44 0 0 1 .492-1.812 3.91 3.91 0 0 1 1.382-1.315c.59-.331 1.262-.503 1.945-.498h5.786v2.81h-5.224c-.208-.004-.409.069-.562.204-.069.065-.123.142-.159.228a.66.66 0 0 0-.053.27.77.77 0 0 0 .212.544c.153.135.354.208.562.204h2.061c.875 0 1.625.128 2.249.384.641.242 1.133.635 1.477 1.179.359.544.538 1.245.538 2.106a3.36 3.36 0 0 1-.538 1.857c-.341.556-.826 1.017-1.407 1.337-.577.333-1.233.498-1.967.498h-6.302zm-7.912-11.894c1.016 0 1.913.158 2.694.476a5.36 5.36 0 0 1 2.015 1.314c.57.57 1.009 1.249 1.289 1.994.296.755.445 1.593.445 2.515 0 1.148-.25 2.168-.75 3.058-.462.854-1.159 1.567-2.014 2.062-.86.498-1.859.748-2.999.748-.484 0-.945-.06-1.383-.181-.414-.118-.809-.294-1.171-.522a3.2 3.2 0 0 1-.866-.838h-.071v6.186h-3.631V42.595c0-1.284.265-2.395.796-3.331.515-.921 1.297-1.677 2.249-2.176.969-.528 2.101-.792 3.397-.792v.001zm0 3.036c-.562 0-1.054.136-1.475.408-.407.257-.719.619-.938 1.088-.218.452-.327.967-.327 1.54a3.51 3.51 0 0 0 .327 1.541 2.69 2.69 0 0 0 .938 1.088c.421.257.913.385 1.475.385s1.047-.129 1.452-.385a2.68 2.68 0 0 0 .938-1.088c.234-.453.351-.967.351-1.541s-.117-1.087-.351-1.54c-.219-.468-.531-.832-.938-1.088-.405-.272-.89-.408-1.452-.408zm-11.96 8.858V36.568h3.655v11.623h-3.655zm1.827-12.937a2.08 2.08 0 0 1-1.499-.611c-.422-.408-.633-.892-.633-1.45s.211-1.042.633-1.45c.421-.423.921-.635 1.499-.635s1.078.212 1.499.635c.422.408.633.891.633 1.45a1.95 1.95 0 0 1-.633 1.45 2.08 2.08 0 0 1-1.499.611zm-9.771 13.209c-1.233 0-2.342-.264-3.327-.793-.965-.512-1.774-1.262-2.342-2.175-.562-.921-.843-1.956-.843-3.104 0-1.163.281-2.197.843-3.104.568-.912 1.377-1.663 2.342-2.175.985-.544 2.094-.816 3.327-.816s2.335.271 3.304.816a5.97 5.97 0 0 1 2.319 2.175c.578.906.867 1.941.867 3.104 0 1.148-.289 2.183-.867 3.104a5.97 5.97 0 0 1-2.319 2.175c-.984.529-2.085.793-3.304.793zm0-3.058c.578 0 1.078-.136 1.5-.408a2.8 2.8 0 0 0 .984-1.088c.234-.453.351-.967.351-1.541 0-.559-.117-1.064-.351-1.518-.223-.44-.562-.815-.984-1.087s-.922-.408-1.5-.408-1.085.136-1.522.408c-.422.272-.762.647-.985 1.088a3.26 3.26 0 0 0-.35 1.518c0 .573.117 1.087.35 1.54.223.441.563.816.985 1.088.437.271.944.408 1.522.408zm-18.314 7.386v-3.014h5.997c.235 0 .43-.075.586-.226a.67.67 0 0 0 .177-.236.64.64 0 0 0 .057-.286v-2.56h-.07a5.46 5.46 0 0 1-1.007.884 3.76 3.76 0 0 1-1.172.544c-.465.126-.946.187-1.429.181-1.062 0-2.015-.242-2.858-.725-.828-.498-1.484-1.186-1.968-2.062-.468-.876-.703-1.873-.703-2.99 0-1.102.243-2.107.727-3.013.499-.906 1.226-1.631 2.179-2.175s2.116-.816 3.49-.816c1.312 0 2.444.264 3.397.793.957.502 1.739 1.266 2.249 2.197.531.937.797 2.04.797 3.309v6.797c0 1.042-.32 1.865-.961 2.47-.624.619-1.491.929-2.6.929l-6.888.001zm4.03-7.658c.562 0 1.046-.121 1.453-.363.401-.252.724-.604.936-1.019.222-.437.334-.918.328-1.405 0-.543-.109-1.042-.327-1.495s-.532-.808-.938-1.065c-.406-.272-.89-.408-1.453-.408-.546 0-1.031.128-1.452.385a2.56 2.56 0 0 0-.937 1.042c-.218.438-.328.929-.328 1.473 0 .529.109 1.012.328 1.45a2.6 2.6 0 0 0 .937 1.019c.421.257.906.385 1.453.385zm-13.801 3.33c-1.234 0-2.342-.264-3.326-.793-.966-.512-1.775-1.262-2.343-2.175-.562-.921-.843-1.956-.843-3.104 0-1.163.281-2.197.843-3.104.569-.913 1.377-1.663 2.343-2.175.984-.544 2.093-.816 3.326-.816s2.335.271 3.304.816a5.97 5.97 0 0 1 2.319 2.175c.578.906.867 1.941.867 3.104 0 1.148-.289 2.183-.867 3.104a5.97 5.97 0 0 1-2.319 2.175c-.984.529-2.085.793-3.304.793zm0-3.058c.578 0 1.077-.136 1.5-.408a2.8 2.8 0 0 0 .984-1.088c.233-.453.35-.967.35-1.541 0-.559-.117-1.064-.35-1.518a2.8 2.8 0 0 0-.984-1.087c-.422-.272-.922-.408-1.5-.408s-1.086.136-1.522.408a2.8 2.8 0 0 0-.984 1.088c-.239.472-.359.993-.351 1.518 0 .573.117 1.087.351 1.54a2.8 2.8 0 0 0 .984 1.088c.437.271.945.408 1.522.408zm-11.629 2.786c-1.015 0-1.906-.218-2.671-.657-.744-.417-1.359-1.02-1.78-1.744S83 44.264 83 43.388V32.332h3.936V43.66c0 .363.134.68.398.952a1.32 1.32 0 0 0 .984.408h4.334v3.171h-4.568z"></path></svg>