<svg xmlns="http://www.w3.org/2000/svg" width="240" viewBox="0 0 240 81" fill="currentColor"><path d="M66 53.108h24.547v-24H66v24zm19.823-14.309h-5.187v-5.071h5.187v5.071zm-15.099-5.071h5.19v9.69h9.909v5.071H70.724V33.728zm35.808-4.619c-2.427 0-4.8.704-6.818 2.022s-3.592 3.193-4.521 5.385-1.172 4.605-.698 6.933a11.92 11.92 0 0 0 3.359 6.144c1.716 1.678 3.904 2.821 6.285 3.284s4.849.225 7.091-.683a12.22 12.22 0 0 0 5.509-4.42c1.348-1.973 2.068-4.294 2.068-6.667-.004-3.181-1.298-6.232-3.599-8.481s-5.421-3.515-8.675-3.519zm0 19.381c-1.493 0-2.952-.433-4.194-1.244s-2.209-1.964-2.78-3.312-.721-2.833-.43-4.264 1.01-2.747 2.066-3.779 2.401-1.735 3.866-2.02 2.982-.139 4.361.42a7.51 7.51 0 0 1 3.388 2.718 7.26 7.26 0 0 1 1.272 4.1 7.31 7.31 0 0 1-2.214 5.216c-1.415 1.384-3.333 2.162-5.335 2.165zm56.195-19.381c-2.428 0-4.8.703-6.819 2.022s-3.592 3.193-4.521 5.385-1.172 4.605-.699 6.933 1.643 4.466 3.359 6.144 3.904 2.821 6.285 3.284 4.848.226 7.091-.683 4.16-2.446 5.508-4.42A11.81 11.81 0 0 0 175 41.108c-.004-3.181-1.298-6.231-3.598-8.481s-5.421-3.515-8.675-3.519zm0 19.381c-1.493 0-2.952-.433-4.194-1.243s-2.209-1.964-2.781-3.312-.721-2.833-.43-4.265a7.33 7.33 0 0 1 2.066-3.779c1.056-1.032 2.401-1.735 3.865-2.02a7.71 7.71 0 0 1 4.362.42 7.51 7.51 0 0 1 3.388 2.718c.829 1.214 1.272 2.641 1.272 4.101-.003 1.956-.799 3.832-2.214 5.215a7.65 7.65 0 0 1-5.334 2.165zm-28.098-19.381c-2.427 0-4.8.704-6.819 2.022s-3.591 3.193-4.52 5.385-1.172 4.605-.699 6.933 1.643 4.466 3.359 6.144 3.904 2.821 6.285 3.284 4.849.225 7.091-.683a12.22 12.22 0 0 0 5.509-4.42c1.348-1.973 2.068-4.294 2.068-6.667-.004-3.181-1.298-6.232-3.599-8.481s-5.421-3.515-8.675-3.519zm0 19.381a7.68 7.68 0 0 1-3.942-1.084 7.45 7.45 0 0 1-2.783-2.937 7.24 7.24 0 0 1-.805-3.925c.106-1.356.594-2.657 1.409-3.759s1.926-1.963 3.21-2.486 2.69-.691 4.065-.482a7.63 7.63 0 0 1 3.724 1.664c1.061.88 1.853 2.029 2.288 3.32h-7.166v4.618h7.166c-.498 1.474-1.458 2.757-2.745 3.667s-2.833 1.401-4.421 1.404z"></path></svg>