<svg xmlns="http://www.w3.org/2000/svg" width="240" viewBox="0 0 240 81" fill="currentColor"><path d="M87.887 31.097h3.096v16.896h5.094v2.816h-8.19V31.097zm14.04 19.993c-1.52 0-2.684-.432-3.49-1.295s-1.21-2.084-1.21-3.661V35.771c0-1.577.403-2.797 1.21-3.661s1.97-1.295 3.49-1.295 2.683.432 3.489 1.295 1.211 2.084 1.211 3.661v10.363c0 1.577-.404 2.797-1.211 3.661s-1.97 1.295-3.489 1.295zm0-2.816c1.069 0 1.604-.648 1.604-1.943V35.574c0-1.295-.535-1.943-1.604-1.943s-1.605.648-1.605 1.943v10.757c0 1.295.535 1.943 1.605 1.943zm11.187 2.816c-1.501 0-2.646-.422-3.434-1.267-.788-.863-1.182-2.093-1.182-3.689V35.771c0-1.596.394-2.816 1.182-3.661.788-.863 1.933-1.295 3.434-1.295s2.645.432 3.433 1.295c.788.845 1.182 2.065 1.182 3.661v1.69h-2.927v-1.887c0-1.295-.534-1.943-1.604-1.943s-1.604.648-1.604 1.943v10.785c0 1.277.535 1.915 1.604 1.915s1.604-.638 1.604-1.915v-3.858h-1.548v-2.816h4.475v6.449c0 1.596-.394 2.825-1.182 3.689-.788.845-1.932 1.267-3.433 1.267zm11.072 0c-1.519 0-2.683-.432-3.489-1.295s-1.211-2.084-1.211-3.661V35.771c0-1.577.404-2.797 1.211-3.661s1.97-1.295 3.489-1.295 2.683.432 3.49 1.295 1.21 2.084 1.21 3.661v10.363c0 1.577-.403 2.797-1.21 3.661s-1.97 1.295-3.49 1.295zm0-2.816c1.07 0 1.605-.648 1.605-1.943V35.574c0-1.295-.535-1.943-1.605-1.943s-1.604.648-1.604 1.943v10.757c0 1.295.535 1.943 1.604 1.943zm6.8-17.177h3.096v19.712h-3.096V31.097zm5.416 0h4.56c1.538 0 2.692.413 3.461 1.239s1.154 2.037 1.154 3.633v1.943c0 1.596-.384 2.807-1.154 3.633s-1.923 1.239-3.461 1.239h-1.464v8.026h-3.096V31.097zm4.56 8.87c.506 0 .882-.141 1.126-.422.262-.282.393-.76.393-1.436v-2.337c0-.676-.131-1.155-.393-1.436-.244-.282-.62-.422-1.126-.422h-1.464v6.054h1.464zm10.431 11.123c-1.5 0-2.636-.422-3.405-1.267-.769-.863-1.154-2.093-1.154-3.689v-1.126h2.927v1.352c0 1.277.535 1.915 1.604 1.915.526 0 .919-.15 1.182-.451.282-.319.423-.826.423-1.521 0-.826-.188-1.549-.563-2.168-.375-.638-1.07-1.399-2.083-2.281-1.276-1.126-2.167-2.14-2.674-3.041-.506-.92-.759-1.952-.759-3.098 0-1.558.393-2.76 1.181-3.605.789-.863 1.933-1.295 3.434-1.295 1.482 0 2.599.432 3.349 1.295.77.845 1.154 2.065 1.154 3.661v.817h-2.927v-1.014c0-.676-.131-1.164-.394-1.464-.262-.319-.647-.479-1.154-.479-1.032 0-1.547.629-1.547 1.887a3.79 3.79 0 0 0 .562 1.999c.394.619 1.098 1.37 2.111 2.253 1.295 1.126 2.186 2.149 2.674 3.069s.732 1.999.732 3.238c0 1.614-.404 2.853-1.211 3.717-.788.863-1.942 1.295-3.462 1.295zm10.951 0c-1.501 0-2.645-.422-3.434-1.267-.788-.864-1.181-2.093-1.181-3.689V31.097h3.096v15.262c0 .676.131 1.164.393 1.464.282.3.676.451 1.182.451s.891-.15 1.154-.451c.281-.3.422-.789.422-1.464V31.097h2.983v15.037c0 1.596-.393 2.825-1.181 3.689-.789.845-1.933 1.267-3.434 1.267zm6.822-19.993h4.419l1.97 14.108h.056l1.971-14.108H182v19.712h-2.927V35.884h-.056l-2.252 14.925h-2.589l-2.252-14.925h-.056v14.925h-2.702V31.097zM58 50.808a6.9 6.9 0 1 0 0-13.8v4.83a2.07 2.07 0 1 1 0 4.14v4.83zm22.988-11.5c-1.178-.373-2.433-.575-3.735-.575-6.824 0-12.356 5.535-12.356 12.362a12.45 12.45 0 0 0 .163 2.013h7.677a4.93 4.93 0 0 1-.426-2.013c0-2.731 2.213-4.945 4.942-4.945a4.93 4.93 0 0 1 3.735 1.707v-8.55zm-21.777-9.2a10.35 10.35 0 0 0 20.562 0h-7.398c-.457 1.146-1.576 1.955-2.883 1.955s-2.427-.809-2.883-1.955h-7.398z"></path></svg>