<svg class="text-white my-3 mt-sm-0" xmlns="http://www.w3.org/2000/svg" width="48" height="48" fill="currentColor"><path d="M27.216 18.697c-2.198 0-3.986 1.752-3.986 3.905s1.788 3.905 3.986 3.905 3.986-1.752 3.986-3.905-1.788-3.905-3.986-3.905zm0 5.972c-1.164 0-2.111-.928-2.111-2.068s.947-2.068 2.111-2.068 2.111.928 2.111 2.068-.947 2.068-2.111 2.068zm17.328 2.772l3.182-3.117c.366-.359.366-.94 0-1.299l-5.337-5.228V8.664c0-.507-.42-.918-.937-.918h-5.25c-.518 0-.937.411-.937.918v2.153L29.47 5.142a3.24 3.24 0 0 0-4.508 0L21.8 8.239c-1.194-4.72-5.555-8.23-10.738-8.23a11.22 11.22 0 0 0-3.958.714c-.483.182-.725.713-.54 1.186s.728.71 1.211.529a9.32 9.32 0 0 1 3.287-.593c5.066 0 9.188 4.038 9.188 9s-4.121 9-9.187 9-9.188-4.037-9.188-9a8.8 8.8 0 0 1 .605-3.219c.185-.474-.057-1.005-.54-1.186s-1.026.056-1.211.53C.245 8.206 0 9.51 0 10.846c0 5.077 3.583 9.349 8.401 10.519l-1.694 1.659c-.366.359-.366.94 0 1.299l3.182 3.117a.94.94 0 0 0 .452.245v13.833H8.654c-.518 0-.937.411-.937.918v3.674c0 .507.42.918.937.918h37.125c.518 0 .938-.411.938-.918v-3.674c0-.507-.42-.918-.937-.918h-1.687V27.685a.93.93 0 0 0 .452-.245zM37.139 9.583h3.375v6.378l-3.375-3.306V9.583zM26.288 6.44a1.32 1.32 0 0 1 .928-.377 1.32 1.32 0 0 1 .928.377l17.592 17.234-1.856 1.818L27.879 9.817a.95.95 0 0 0-1.326 0l-5.263 5.155a10.59 10.59 0 0 0 .834-4.127 10.75 10.75 0 0 0-.005-.322l4.169-4.084zM8.696 23.674l2.038-1.996.329.005a11.2 11.2 0 0 0 4.213-.817l-4.723 4.627-1.856-1.818zm36.145 21.518H9.591v-1.837h35.25v1.837zm-14.062-3.674h-7.125V30.682h7.125v10.837zm1.875 0V29.763c0-.507-.42-.918-.937-.918h-9c-.518 0-.937.411-.937.918v11.755h-9.562V26.46l15-14.694 15 14.694v15.059h-9.562zM11.019 13.897c-.801.006-1.03-.03-1.637-.419a.95.95 0 0 0-1.298.266c-.283.425-.162.994.271 1.271.677.434 1.179.614 1.783.682v.286c0 .507.42.918.938.918s.938-.411.938-.918v-.402a3.2 3.2 0 0 0 2.165-2.471c.242-1.413-.539-2.689-1.946-3.176-.753-.261-1.585-.575-2.046-.929-.119-.091-.17-.321-.124-.558.024-.123.134-.536.559-.661.793-.233 1.507.264 1.514.269a.95.95 0 0 0 1.309-.19c.306-.403.218-.976-.186-1.281-.266-.194-.708-.43-1.245-.57v-.306c0-.507-.42-.918-.937-.918s-.937.411-.937.918v.303l-.057.016c-.956.281-1.669 1.078-1.862 2.079-.178.925.132 1.823.81 2.344.672.517 1.637.89 2.578 1.216.753.261.775.826.721 1.14a1.31 1.31 0 0 1-1.311 1.092zM3.904 4.75c.518 0 .938-.411.938-.918s-.42-.918-.937-.918-.937.411-.937.918.42.918.938.918z"></path></svg>