<svg class="text-dark-emphasis my-3 mt-sm-0" xmlns="http://www.w3.org/2000/svg" width="48" height="48" fill="currentColor"><path d="M43.777.231H3.73C1.673.231 0 1.905 0 3.961v22.548c0 2.057 1.673 3.73 3.73 3.73h9.225a.941.941 0 1 0 0-1.882H3.73a1.85 1.85 0 0 1-1.847-1.847V3.961A1.85 1.85 0 0 1 3.73 2.114h40.048a1.85 1.85 0 0 1 1.847 1.847v22.548a1.85 1.85 0 0 1-1.847 1.847h-2.826a.941.941 0 1 0 0 1.882h2.826c2.057 0 3.73-1.673 3.73-3.73V3.961c0-2.056-1.673-3.73-3.73-3.73zm4.22 34.579a1.81 1.81 0 0 0-1.185-1.647h0l-15.567-5.775a2.81 2.81 0 0 0-3.653 3.653l5.761 15.541a1.81 1.81 0 0 0 1.655 1.186l.052.001a1.81 1.81 0 0 0 1.666-1.093l1.593-3.658 3.455 3.456c.983.984 2.584.984 3.567.001l1.333-1.332c.476-.476.739-1.11.739-1.784a2.51 2.51 0 0 0-.738-1.784l-3.411-3.412 3.658-1.633a1.81 1.81 0 0 0 1.077-1.72zm-6.751 2.191a.94.94 0 0 0-.282 1.525l4.378 4.379a.64.64 0 0 1 0 .905l-1.333 1.332c-.121.121-.282.187-.452.187h0a.64.64 0 0 1-.453-.187l-4.431-4.433a.94.94 0 0 0-1.529.29l-2.082 4.781-5.706-15.394c-.198-.535.119-.91.221-1.012.079-.079.319-.285.67-.285a.98.98 0 0 1 .342.064l15.422 5.721-4.765 2.127zm4.911-2.073l.327-.883-.327.883zm-19.352-9.664l-2.659-2.66a.941.941 0 1 0-1.331 1.331l2.66 2.66a.94.94 0 1 0 1.331-1.331zm-2.606 3.1h-3.761a.941.941 0 1 0 0 1.882h3.761a.941.941 0 1 0 0-1.882zm5.398-9.161a.94.94 0 0 0-.941.941v3.761a.941.941 0 1 0 1.882 0v-3.761a.94.94 0 0 0-.941-.941zm7.9 1.748a.94.94 0 0 0-1.331 0l-2.66 2.66a.94.94 0 1 0 1.332 1.331l2.66-2.66a.94.94 0 0 0 0-1.331zM25.716 32.736a.94.94 0 0 0-1.331 0l-2.66 2.66a.94.94 0 1 0 1.331 1.331l2.66-2.66a.94.94 0 0 0 0-1.331zm-9.026-2.495c.521 0 .944-.423.944-.944s-.423-.944-.944-.944-.944.423-.944.944.423.944.944.944zm-.166-16.121c.825-.358 1.323-1.198 1.323-2.475 0-2.21-1.51-2.739-3.128-2.739h-3.004c-.451 0-.887.218-.887.638V19.66c0 .327.342.623.887.623h3.299c1.759 0 3.112-.872 3.112-3.299v-.327c0-1.556-.654-2.163-1.603-2.537zm-3.688-3.439h1.727c.794 0 1.261.498 1.261 1.307 0 .794-.405 1.338-1.245 1.338h-1.743v-2.645zm3.268 6.132c0 1.183-.56 1.696-1.51 1.696h-1.758v-3.595h1.758c.949 0 1.51.436 1.51 1.65v.249zm9.882-7.906c-.514 0-1.012.187-1.012.623v7.283c0 1.214-.638 1.79-1.712 1.79s-1.712-.576-1.712-1.79V9.529c0-.436-.514-.623-1.012-.623-.514 0-1.012.187-1.012.623v7.283c0 2.599 1.634 3.564 3.735 3.564 2.085 0 3.735-.965 3.735-3.564V9.529c0-.436-.514-.623-1.011-.623zm9.352 0c-.327 0-.467.14-.607.405L32.35 13.81l-2.366-4.498c-.14-.28-.296-.405-.623-.405-.545 0-1.338.342-1.338.84a.61.61 0 0 0 .047.202l3.221 5.571a.39.39 0 0 1 .047.202v3.922c0 .42.514.638 1.012.638.514 0 1.012-.218 1.012-.638v-3.922a.39.39 0 0 1 .062-.202l3.206-5.571c.047-.078.047-.156.047-.202 0-.498-.794-.84-1.338-.84z"></path></svg>