<svg class="text-dark-emphasis my-3 mt-sm-0" xmlns="http://www.w3.org/2000/svg" width="48" height="48" fill="currentColor"><path d="M5.208 44.81h37.691A5.09 5.09 0 0 0 48 39.682V26.689c0-2.842-2.258-5.181-5.101-5.181h-1.573L27.491 8.564a3.77 3.77 0 0 0 .375-1.64c-.001-2.105-1.709-3.811-3.815-3.81s-3.811 1.709-3.81 3.815c0 .566.128 1.125.375 1.634L6.781 21.508H5.208C2.366 21.508 0 23.847 0 26.689v12.993c0 2.842 2.366 5.128 5.208 5.128zM24.054 4.837c1.157 0 2.094.938 2.094 2.094s-.937 2.094-2.094 2.094-2.094-.937-2.094-2.094.938-2.093 2.094-2.094zm-2.359 5.072a3.77 3.77 0 0 0 4.719-.003l12.399 11.603H9.295L21.694 9.908zm24.588 29.747c0 1.898-1.539 3.436-3.436 3.436H5.154c-1.898 0-3.436-1.539-3.436-3.436V26.662c0-1.898 1.539-3.436 3.436-3.436h37.691c1.898 0 3.436 1.539 3.436 3.436v12.993zm-34.954-2.639c.419 0 .805-.172.805-.516v-2.537h.763l1.471 2.831a.56.56 0 0 0 .537.299c.494 0 1.052-.457 1.052-.876.001-.069-.018-.138-.054-.196l-1.31-2.375c.752-.29 1.3-.995 1.3-2.198 0-1.75-1.17-2.316-2.642-2.316h-2.223a.52.52 0 0 0-.505.54v6.829c0 .344.387.516.805.516zm.805-6.381h1.117c.601 0 .966.268.966 1.02s-.365 1.02-.966 1.02h-1.117v-2.04zm6.453 6.335h3.823c.354 0 .505-.343.505-.687 0-.397-.183-.709-.505-.709h-2.867v-1.826h1.6c.354 0 .505-.344.505-.633 0-.344-.183-.655-.505-.655h-1.6v-1.826h2.867c.322 0 .505-.365.505-.762 0-.344-.15-.741-.505-.741h-3.823c-.365 0-.763.206-.763.55v6.819c0 .344.397.47.763.47zm6.971.045c.419 0 .859-.172.859-.516v-3.65l2.029 3.716c.204.376.526.451.913.451.419 0 .816-.172.816-.516v-6.829c0-.354-.387-.505-.805-.505s-.805.151-.805.505v3.651l-1.756-3.318c-.408-.784-.652-.838-1.253-.838-.419 0-.857.161-.857.515v6.819c0 .343.441.516.859.516zm6.892-6.381h1.482v5.866c0 .344.44.516.859.516s.859-.172.859-.516v-5.866h1.439c.322 0 .505-.355.505-.762 0-.354-.151-.741-.505-.741H32.45c-.354 0-.505.387-.505.741 0 .408.183.762.505.762z"></path></svg>