<svg xmlns="http://www.w3.org/2000/svg" width="240" viewBox="0 0 240 81" fill="currentColor"><path d="M61.167 33.872A7.5 7.5 0 0 0 57 32.608v-7.5a15 15 0 0 1 13.858 9.26 15 15 0 0 1-3.252 16.347 15 15 0 0 1-16.347 3.252A15 15 0 0 1 42 40.108h7.5a7.5 7.5 0 0 0 4.63 6.929 7.5 7.5 0 0 0 8.173-1.626 7.5 7.5 0 0 0 1.626-8.173 7.5 7.5 0 0 0-2.762-3.366z"></path><path d="M49.5 25.108a7.5 7.5 0 0 1-2.197 5.303A7.5 7.5 0 0 1 42 32.608v7.5a15 15 0 0 0 10.607-4.393A15 15 0 0 0 57 25.108h-7.5z"></path><path d="M139.23 35.948h-3.755v11.559h3.755V35.948zm-3.341-2.165c.393.381.883.571 1.472.571s1.072-.19 1.448-.571c.377-.396.565-.872.565-1.427 0-.571-.188-1.046-.565-1.427s-.859-.571-1.448-.571-1.079.19-1.472.571c-.377.381-.565.856-.565 1.427 0 .555.188 1.031.565 1.427zM81.592 47.507V30.715h3.854v13.51h7.682v3.282H81.592z"></path><path d="M100.072 47.769c-1.227 0-2.34-.262-3.338-.785-.982-.539-1.759-1.268-2.332-2.188s-.859-1.95-.859-3.092.286-2.164.859-3.068 1.35-1.617 2.332-2.141c.982-.539 2.094-.809 3.338-.809s2.356.262 3.338.785a6.04 6.04 0 0 1 2.332 2.164c.572.904.859 1.927.859 3.068s-.287 2.172-.859 3.092-1.35 1.649-2.332 2.188c-.982.523-2.095.785-3.338.785zm0-3.306c.54 0 1.014-.111 1.424-.333a2.36 2.36 0 0 0 .932-.975c.229-.428.344-.912.344-1.451s-.115-1.007-.344-1.403c-.229-.412-.548-.729-.957-.951-.393-.238-.859-.357-1.399-.357-.524 0-.99.119-1.399.357a2.37 2.37 0 0 0-.957.951c-.229.412-.344.888-.344 1.427 0 .523.115.999.344 1.427a2.53 2.53 0 0 0 .957.975c.409.222.876.333 1.399.333zm9.5 7.563c.998.444 2.152.666 3.461.666 1.276 0 2.414-.246 3.412-.737s1.783-1.173 2.356-2.045.86-1.903.86-3.092v-10.87h-3.683v.777c-.273-.223-.584-.411-.932-.563-.638-.301-1.367-.452-2.185-.452-1.096 0-2.07.254-2.921.761a5.34 5.34 0 0 0-2.012 2.045c-.491.856-.737 1.824-.737 2.902 0 1.062.246 2.03.737 2.902s1.161 1.562 2.012 2.069 1.825.761 2.921.761c.802 0 1.53-.151 2.185-.452.317-.146.603-.318.859-.516v.73c0 .809-.27 1.435-.81 1.879-.524.444-1.252.666-2.185.666-.752 0-1.399-.127-1.939-.381a4.45 4.45 0 0 1-1.423-1.118l-2.308 2.236c.573.793 1.35 1.403 2.332 1.831zm5.351-8.443c-.376.222-.826.333-1.35.333s-.982-.111-1.374-.333a2.38 2.38 0 0 1-.884-.904c-.213-.396-.319-.817-.319-1.261a2.58 2.58 0 0 1 .319-1.284 2.33 2.33 0 0 1 .908-.904c.393-.222.843-.333 1.35-.333.524 0 .974.111 1.35.333a2.17 2.17 0 0 1 .884.904c.212.381.319.809.319 1.284s-.107.904-.319 1.284a2.21 2.21 0 0 1-.884.88zm12.641 4.186c-1.227 0-2.34-.262-3.338-.785-.982-.539-1.759-1.268-2.332-2.188s-.859-1.95-.859-3.092.287-2.164.859-3.068a6.1 6.1 0 0 1 2.332-2.141c.982-.539 2.095-.809 3.338-.809s2.356.262 3.338.785a6.04 6.04 0 0 1 2.332 2.164c.573.904.859 1.927.859 3.068s-.286 2.172-.859 3.092-1.35 1.649-2.332 2.188c-.982.523-2.095.785-3.338.785zm0-3.306c.54 0 1.014-.111 1.424-.333a2.36 2.36 0 0 0 .932-.975c.23-.428.344-.912.344-1.451s-.114-1.007-.344-1.403c-.229-.412-.548-.729-.957-.951-.392-.238-.859-.357-1.399-.357a2.73 2.73 0 0 0-1.399.357c-.409.222-.728.539-.957.951s-.344.888-.344 1.427c0 .523.115.999.344 1.427a2.53 2.53 0 0 0 .957.975c.409.222.875.333 1.399.333zm20.693 3.282c-.801 0-1.538-.151-2.209-.452-.353-.158-.672-.348-.957-.568v5.658h-3.706V35.948h3.755v.798c.273-.216.575-.403.908-.56.671-.317 1.408-.476 2.209-.476 1.129 0 2.128.262 2.994.785.884.523 1.572 1.237 2.062 2.141.508.904.761 1.935.761 3.092s-.253 2.188-.761 3.092c-.49.904-1.178 1.617-2.062 2.141-.866.523-1.865.785-2.994.785zm-.687-3.282c.54 0 1.007-.119 1.399-.357a2.53 2.53 0 0 0 .957-.975 2.84 2.84 0 0 0 .344-1.403c0-.539-.115-1.015-.344-1.427s-.548-.729-.957-.951c-.392-.238-.851-.357-1.375-.357s-.99.119-1.398.357a2.41 2.41 0 0 0-.933.951c-.229.412-.343.888-.343 1.427 0 .523.106.991.318 1.403a2.53 2.53 0 0 0 .958.975 2.68 2.68 0 0 0 1.374.357z"></path><path d="M157.752 47.531a8.46 8.46 0 0 0 2.085.262c1.49 0 2.668-.333 3.535-.999a3.19 3.19 0 0 0 1.325-2.688c0-.729-.138-1.316-.417-1.76a3.19 3.19 0 0 0-1.08-1.094c-.442-.27-.908-.484-1.399-.642l-1.399-.404c-.441-.111-.801-.238-1.08-.381s-.417-.333-.417-.571c0-.222.107-.389.319-.5.213-.127.531-.19.957-.19.442 0 .892.087 1.35.262.474.174.9.476 1.276.904l2.136-2.093c-.54-.666-1.243-1.166-2.111-1.498-.851-.349-1.783-.523-2.798-.523-.965 0-1.808.159-2.528.476s-1.277.753-1.669 1.308c-.393.539-.589 1.181-.589 1.927 0 .698.139 1.276.417 1.736.278.444.638.793 1.08 1.047a6.37 6.37 0 0 0 1.399.595l1.399.404c.442.111.802.246 1.08.404.295.143.442.357.442.642 0 .222-.123.396-.368.523-.23.127-.565.19-1.007.19-.638 0-1.227-.111-1.767-.333-.54-.238-1.007-.563-1.399-.975l-2.135 2.093c.409.428.9.809 1.473 1.142a8.46 8.46 0 0 0 1.89.737zm13.787.238c-1.096 0-2.069-.214-2.92-.642-.835-.444-1.489-1.047-1.964-1.808-.475-.777-.712-1.665-.712-2.664v-6.707h3.756v6.66c0 .396.065.737.196 1.023a1.59 1.59 0 0 0 .638.666c.279.159.614.238 1.006.238.557 0 .999-.166 1.326-.499.327-.349.491-.824.491-1.427v-6.66h3.755v6.683c0 1.015-.237 1.911-.712 2.688-.474.761-1.128 1.364-1.964 1.808-.834.428-1.799.642-2.896.642zm11.195-11.821h-3.755v11.559h3.755v-6.755c0-.396.082-.729.245-.999.181-.27.418-.476.712-.618a2.09 2.09 0 0 1 1.006-.238c.541 0 .99.166 1.35.499.377.317.565.769.565 1.356v6.755h3.756v-6.755c0-.396.082-.729.245-.999.18-.27.417-.476.712-.618.294-.159.63-.238 1.006-.238.54 0 .99.166 1.35.499.376.317.564.769.564 1.356v6.755h3.756v-7.159c0-.967-.212-1.792-.638-2.474a4.04 4.04 0 0 0-1.694-1.593c-.703-.381-1.514-.571-2.43-.571-.933 0-1.775.198-2.528.595a4.56 4.56 0 0 0-1.282.978 4.15 4.15 0 0 0-1.246-1.025c-.654-.365-1.399-.547-2.233-.547-.884 0-1.677.182-2.381.547-.307.152-.584.334-.835.545v-.854z"></path></svg>