<svg xmlns="http://www.w3.org/2000/svg" width="240" viewBox="0 0 240 81" fill="currentColor"><path d="M88.82 45.8c0 .742-.148 1.313-.443 1.711-.288.398-.769.598-1.444.598-.637 0-1.088-.199-1.353-.598-.258-.398-.386-.969-.386-1.711V33.413c0-.742.129-1.312.386-1.711.265-.399.716-.598 1.353-.598.674 0 1.156.199 1.444.598.296.398.443.969.443 1.711V45.8zm1.102-3.598c0-.828.129-1.609.387-2.344.265-.742.659-1.391 1.182-1.945.531-.555 1.19-.996 1.978-1.324.796-.328 1.728-.492 2.797-.492 1.023 0 1.929.152 2.717.457s1.451.73 1.989 1.277c.538.539.948 1.184 1.228 1.934.281.742.421 1.555.421 2.438 0 .82-.133 1.598-.398 2.332a5.45 5.45 0 0 1-1.194 1.922c-.53.547-1.194.984-1.989 1.313-.796.32-1.721.48-2.774.48-1.038 0-1.955-.152-2.751-.457-.788-.312-1.451-.738-1.989-1.277-.531-.547-.932-1.187-1.205-1.922a7.05 7.05 0 0 1-.398-2.391zm3.786 0a7.74 7.74 0 0 0 .136 1.477 4.11 4.11 0 0 0 .432 1.219c.205.352.47.633.796.844.326.203.724.305 1.194.305.432 0 .807-.094 1.125-.281.326-.187.591-.449.796-.785.212-.336.371-.738.477-1.207a7.24 7.24 0 0 0 .159-1.57c0-.516-.049-1.004-.148-1.465-.091-.469-.239-.879-.444-1.23a2.33 2.33 0 0 0-.796-.844c-.318-.211-.709-.316-1.171-.316s-.856.102-1.182.305-.591.48-.796.832-.352.762-.443 1.23a7.8 7.8 0 0 0-.136 1.488zm18.243 3.645a3.63 3.63 0 0 1-.75.996 4.04 4.04 0 0 1-.966.68 4.82 4.82 0 0 1-1.126.387 6.25 6.25 0 0 1-1.216.117c-.698 0-1.334-.129-1.91-.387a4.22 4.22 0 0 1-1.49-1.113c-.409-.492-.727-1.094-.955-1.805s-.341-1.523-.341-2.437c0-.859.106-1.664.319-2.414s.519-1.402.921-1.957c.409-.555.909-.992 1.5-1.312s1.266-.48 2.024-.48c.864 0 1.629.172 2.296.516.675.344 1.255.906 1.74 1.688v-.305c0-.562.148-.984.443-1.266.303-.289.72-.434 1.251-.434.318 0 .587.055.807.164.22.102.394.258.523.469.129.203.22.457.273.762a5.18 5.18 0 0 1 .091 1.02v7.852c0 .953-.118 1.805-.353 2.555-.227.75-.583 1.383-1.068 1.899s-1.107.906-1.865 1.172c-.758.273-1.66.41-2.706.41-.735 0-1.387-.035-1.955-.105a7.4 7.4 0 0 1-1.455-.293c-.41-.148-.72-.312-.933-.492-.204-.18-.307-.414-.307-.703a1.58 1.58 0 0 1 .069-.469 1.22 1.22 0 0 1 .204-.398 1.15 1.15 0 0 1 .376-.27c.159-.062.352-.094.579-.094a5.74 5.74 0 0 1 .728.047l.773.094.853.105c.303.031.629.047.977.047a4.39 4.39 0 0 0 1.115-.129c.325-.086.602-.238.829-.457s.402-.512.523-.879c.122-.359.182-.82.182-1.383V45.85zm0-3.645a8.87 8.87 0 0 0-.125-1.559c-.076-.469-.208-.867-.398-1.196-.189-.336-.443-.594-.761-.773-.319-.187-.717-.281-1.194-.281-.47 0-.86.098-1.171.293a2.12 2.12 0 0 0-.728.809c-.182.344-.31.746-.386 1.207a10.12 10.12 0 0 0-.103 1.477c0 1.195.205 2.094.614 2.695s1.005.902 1.785.902c.364-.008.694-.078.989-.211a2.08 2.08 0 0 0 .785-.645c.22-.29.39-.656.511-1.102s.182-.984.182-1.617zm4.479 0a7.05 7.05 0 0 1 .386-2.344 5.51 5.51 0 0 1 1.183-1.945c.53-.555 1.189-.996 1.978-1.324.796-.328 1.728-.492 2.796-.492 1.024 0 1.929.152 2.718.457s1.451.73 1.989 1.277c.538.539.948 1.184 1.228 1.934.28.742.421 1.555.421 2.438 0 .82-.133 1.598-.398 2.332a5.46 5.46 0 0 1-1.194 1.922c-.531.547-1.194.984-1.99 1.313-.795.32-1.72.48-2.774.48-1.038 0-1.955-.152-2.751-.457-.788-.312-1.451-.738-1.989-1.277a5.43 5.43 0 0 1-1.205-1.922c-.266-.742-.398-1.539-.398-2.391zm3.785 0a7.74 7.74 0 0 0 .137 1.477 4.11 4.11 0 0 0 .432 1.219c.205.352.47.633.796.844.326.203.724.305 1.193.305.432 0 .808-.094 1.126-.281a2.22 2.22 0 0 0 .796-.785c.212-.336.371-.738.477-1.207a7.24 7.24 0 0 0 .159-1.57 7.03 7.03 0 0 0-.147-1.465c-.091-.469-.239-.879-.444-1.23-.204-.359-.47-.641-.796-.844-.318-.211-.708-.316-1.171-.316s-.856.102-1.182.305a2.36 2.36 0 0 0-.796.832c-.204.352-.352.762-.443 1.23a7.8 7.8 0 0 0-.137 1.488zm13.788-10.054c0 .258-.057.488-.17.691a1.61 1.61 0 0 1-.444.492 2.03 2.03 0 0 1-.636.305 2.82 2.82 0 0 1-.728.094 2.73 2.73 0 0 1-.762-.105 2.04 2.04 0 0 1-.625-.305 1.59 1.59 0 0 1-.432-.504c-.106-.195-.159-.418-.159-.668a1.31 1.31 0 0 1 .148-.621 1.66 1.66 0 0 1 .42-.504 1.93 1.93 0 0 1 .626-.328 2.58 2.58 0 0 1 .795-.117c.251 0 .493.035.728.105.243.07.455.172.637.305a1.47 1.47 0 0 1 .432.492 1.31 1.31 0 0 1 .17.668zm-.17 13.652c0 .742-.148 1.313-.444 1.711-.288.398-.769.598-1.444.598-.636 0-1.087-.199-1.352-.598-.258-.398-.387-.969-.387-1.711v-7.172c0-.742.129-1.312.387-1.711.265-.398.716-.598 1.352-.598.675 0 1.156.199 1.444.598.296.398.444.969.444 1.711V45.8zm5.231-3.621a8.98 8.98 0 0 0 .113 1.465 3.94 3.94 0 0 0 .41 1.195 2.25 2.25 0 0 0 .773.797c.326.195.727.293 1.205.293.439 0 .807-.094 1.103-.281a2.15 2.15 0 0 0 .728-.797c.181-.344.31-.746.386-1.207.083-.461.125-.961.125-1.5a9.65 9.65 0 0 0-.091-1.312c-.061-.453-.174-.863-.341-1.231a2.39 2.39 0 0 0-.694-.902c-.295-.234-.682-.352-1.159-.352s-.883.078-1.217.234a1.92 1.92 0 0 0-.796.715c-.197.32-.337.723-.42 1.207-.084.477-.125 1.035-.125 1.676zm-.012-3.551c.19-.414.432-.777.728-1.09a4.5 4.5 0 0 1 .978-.785 4.35 4.35 0 0 1 1.114-.469 4.36 4.36 0 0 1 1.17-.164c.698 0 1.328.16 1.888.48a4.46 4.46 0 0 1 1.432 1.313c.402.547.709 1.195.922 1.945a8.71 8.71 0 0 1 .318 2.391c0 .883-.114 1.691-.341 2.426-.22.734-.535 1.367-.944 1.898a4.36 4.36 0 0 1-1.456 1.23c-.56.297-1.185.445-1.875.445-.849 0-1.607-.203-2.274-.609s-1.22-.976-1.66-1.711v4.219c0 .742-.147 1.313-.443 1.711-.288.398-.769.598-1.444.598-.636 0-1.087-.199-1.353-.598-.257-.398-.386-.969-.386-1.711v-11.52c0-.742.129-1.312.386-1.711.266-.398.717-.598 1.353-.598.675 0 1.156.199 1.444.598.296.398.443.969.443 1.711zm12.547.832c0 .305.129.543.386.715.258.164.614.301 1.069.41l1.33.293 1.33.328a9.01 9.01 0 0 1 1.217.422 3.82 3.82 0 0 1 1 .621 2.61 2.61 0 0 1 .682.891c.167.344.25.758.25 1.242 0 .609-.121 1.153-.364 1.629-.242.469-.587.867-1.034 1.195-.439.328-.966.582-1.58.762a7.51 7.51 0 0 1-2.035.281c-.705 0-1.384-.047-2.036-.141a8.12 8.12 0 0 1-1.739-.41c-.5-.187-.901-.418-1.205-.691-.303-.281-.454-.609-.454-.984 0-.328.102-.582.306-.762s.466-.27.785-.27a1.63 1.63 0 0 1 .432.07l.545.176.626.235.704.211a9.02 9.02 0 0 0 .933.211 7.03 7.03 0 0 0 1.001.07c.211 0 .42-.02.624-.059.205-.047.388-.113.547-.199a1.31 1.31 0 0 0 .409-.352 1.03 1.03 0 0 0 .193-.516 1.03 1.03 0 0 0 .056-.141.51.51 0 0 0 .024-.164c0-.219-.099-.414-.296-.586-.189-.172-.459-.309-.807-.41l-1.672-.387-1.477-.375a9.08 9.08 0 0 1-1.229-.457 3.44 3.44 0 0 1-.932-.633 2.73 2.73 0 0 1-.591-.902c-.137-.352-.204-.777-.204-1.277 0-.539.117-1.02.352-1.441a3.08 3.08 0 0 1 1.035-1.078c.447-.289.988-.508 1.626-.656.636-.156 1.356-.234 2.159-.234 1.44 0 2.535.18 3.286.539.758.352 1.137.813 1.137 1.383 0 .32-.103.566-.307.738-.205.164-.451.246-.739.246-.152 0-.311-.027-.478-.082l-.579-.199a5.36 5.36 0 0 0-.819-.199c-.31-.062-.697-.094-1.159-.094l-.956.047c-.28.031-.523.086-.727.164-.197.078-.353.184-.466.316-.107.133-.159.301-.159.504zm11.881 4.301a3.02 3.02 0 0 0 .137.961 2.1 2.1 0 0 0 .397.691c.167.18.36.316.58.41a2.04 2.04 0 0 0 .727.129 2.74 2.74 0 0 0 .876-.141 2.02 2.02 0 0 0 .739-.434 2.07 2.07 0 0 0 .523-.738c.129-.297.193-.645.193-1.043v-4.969c0-.742.129-1.313.387-1.711.265-.398.716-.598 1.353-.598.674 0 1.155.199 1.443.598.296.398.444.969.444 1.711V45.8c0 .742-.148 1.313-.444 1.711-.288.398-.769.598-1.443.598-.637 0-1.088-.199-1.353-.598-.258-.398-.387-.969-.387-1.711a3.88 3.88 0 0 1-.625.984 3.93 3.93 0 0 1-.887.773c-.334.211-.704.375-1.114.492a4.65 4.65 0 0 1-1.307.176c-.508 0-.997-.09-1.467-.27a3.64 3.64 0 0 1-1.228-.82c-.356-.367-.64-.82-.852-1.359s-.318-1.168-.318-1.887v-5.262c0-.742.129-1.313.386-1.711.265-.398.716-.598 1.353-.598.674 0 1.155.199 1.444.598.295.398.443.969.443 1.711v5.133zm9.442-5.133c0-.742.129-1.312.387-1.711.265-.398.716-.598 1.352-.598.676 0 1.157.199 1.445.598.295.398.443.969.443 1.711a3.74 3.74 0 0 1 .614-1.019 4.19 4.19 0 0 1 .898-.797 4.31 4.31 0 0 1 1.103-.504c.394-.125.803-.187 1.228-.187a4.17 4.17 0 0 1 1.159.164 3.22 3.22 0 0 1 1.069.504 3.46 3.46 0 0 1 .875.867c.251.352.444.773.581 1.266a5.16 5.16 0 0 1 .829-1.324c.318-.359.664-.648 1.034-.867a4.14 4.14 0 0 1 1.16-.469 5.47 5.47 0 0 1 1.228-.141c.485 0 .947.09 1.387.27a3.16 3.16 0 0 1 1.171.82c.341.359.61.816.807 1.371.205.547.307 1.188.307 1.922V45.8c0 .742-.148 1.313-.444 1.711-.287.398-.769.598-1.443.598-.637 0-1.088-.199-1.353-.598-.258-.398-.387-.969-.387-1.711v-5.133c0-.352-.045-.664-.136-.938-.091-.281-.22-.516-.387-.703-.159-.195-.348-.34-.568-.434a1.65 1.65 0 0 0-.704-.152 2.59 2.59 0 0 0-.887.152 2 2 0 0 0-.739.469 2.4 2.4 0 0 0-.501.809c-.121.328-.181.723-.181 1.184V45.8c0 .742-.149 1.313-.444 1.711-.288.398-.769.598-1.444.598-.637 0-1.088-.199-1.353-.598-.258-.398-.387-.969-.387-1.711v-4.91c0-.805-.163-1.414-.488-1.828-.319-.414-.755-.621-1.307-.621a2.48 2.48 0 0 0-.91.164c-.281.109-.523.27-.728.48s-.368.473-.489.785c-.114.313-.17.672-.17 1.078V45.8c0 .742-.148 1.313-.443 1.711-.288.398-.769.598-1.445.598-.636 0-1.087-.199-1.352-.598-.258-.398-.387-.969-.387-1.711v-7.172zM62 46.108a6 6 0 1 1 0-12 6 6 0 1 1 0 12zm-11.575-3.575c-1.72.298-2.899 1.929-2.238 3.516a14.59 14.59 0 0 0 4.298 5.733c2.726 2.206 6.164 3.385 9.696 3.324s6.926-1.356 9.572-3.654a14.56 14.56 0 0 0 4.092-5.877c.603-1.609-.633-3.198-2.362-3.437s-3.282.997-4.136 2.493a8.39 8.39 0 0 1-1.784 2.171c-1.518 1.319-3.466 2.062-5.492 2.097s-3.999-.642-5.563-1.907a8.4 8.4 0 0 1-1.86-2.109c-.907-1.465-2.503-2.647-4.222-2.349zm26.459-.932c.077-.6.116-1.212.116-1.832 0-8.097-6.716-14.661-15-14.661s-15 6.564-15 14.661a14.44 14.44 0 0 0 .19 2.34c.689-.922 1.764-1.58 2.926-1.78 1.257-.217 2.399.081 3.364.638-.057-.391-.087-.791-.087-1.197 0-4.646 3.853-8.412 8.606-8.412s8.606 3.766 8.606 8.412a8.33 8.33 0 0 1-.049.907c.945-.59 2.076-.927 3.34-.753 1.168.16 2.265.781 2.987 1.678z"></path></svg>